<mxfile host="65bd71144e">
    <diagram id="HfyMku1cmArPJToxuU6y" name="Page-1">
        <mxGraphModel dx="728" dy="563" grid="1" gridSize="10" guides="1" tooltips="1" connect="1" arrows="1" fold="1" page="1" pageScale="1" pageWidth="850" pageHeight="1100" math="0" shadow="0">
            <root>
                <mxCell id="0"/>
                <mxCell id="1" parent="0"/>
                <mxCell id="46" style="edgeStyle=none;html=1;exitX=0.5;exitY=0.5;exitDx=0;exitDy=0;exitPerimeter=0;entryX=0;entryY=0.5;entryDx=0;entryDy=0;" parent="1" source="9" target="45" edge="1">
                    <mxGeometry relative="1" as="geometry"/>
                </mxCell>
                <mxCell id="81" style="edgeStyle=none;html=1;exitX=0.5;exitY=0.5;exitDx=0;exitDy=0;exitPerimeter=0;entryX=0;entryY=0.75;entryDx=0;entryDy=0;" parent="1" source="9" target="77" edge="1">
                    <mxGeometry relative="1" as="geometry"/>
                </mxCell>
                <mxCell id="9" value="SensorScheduler" style="shape=umlActor;verticalLabelPosition=bottom;verticalAlign=top;html=1;" parent="1" vertex="1">
                    <mxGeometry x="110" y="30" width="30" height="60" as="geometry"/>
                </mxCell>
                <mxCell id="36" style="edgeStyle=none;html=1;exitX=0.5;exitY=0.5;exitDx=0;exitDy=0;exitPerimeter=0;entryX=0.981;entryY=0.738;entryDx=0;entryDy=0;entryPerimeter=0;" parent="1" source="10" target="31" edge="1">
                    <mxGeometry relative="1" as="geometry"/>
                </mxCell>
                <mxCell id="10" value="CalibrationHandler" style="shape=umlActor;verticalLabelPosition=bottom;verticalAlign=top;html=1;" parent="1" vertex="1">
                    <mxGeometry x="590" y="220" width="30" height="60" as="geometry"/>
                </mxCell>
                <mxCell id="73" style="edgeStyle=none;html=1;exitX=0.5;exitY=0.5;exitDx=0;exitDy=0;exitPerimeter=0;" parent="1" source="11" target="68" edge="1">
                    <mxGeometry relative="1" as="geometry"/>
                </mxCell>
                <mxCell id="11" value="EMHandler" style="shape=umlActor;verticalLabelPosition=bottom;verticalAlign=top;html=1;" parent="1" vertex="1">
                    <mxGeometry x="120" y="150" width="30" height="60" as="geometry"/>
                </mxCell>
                <mxCell id="74" style="edgeStyle=none;html=1;exitX=0.5;exitY=0.5;exitDx=0;exitDy=0;exitPerimeter=0;entryX=0.112;entryY=0.852;entryDx=0;entryDy=0;entryPerimeter=0;" parent="1" source="12" target="67" edge="1">
                    <mxGeometry relative="1" as="geometry"/>
                </mxCell>
                <mxCell id="12" value="THERMHandler" style="shape=umlActor;verticalLabelPosition=bottom;verticalAlign=top;html=1;" parent="1" vertex="1">
                    <mxGeometry x="120" y="250" width="30" height="60" as="geometry"/>
                </mxCell>
                <mxCell id="53" style="edgeStyle=none;html=1;exitX=0.5;exitY=0.5;exitDx=0;exitDy=0;exitPerimeter=0;entryX=1;entryY=0.75;entryDx=0;entryDy=0;" parent="1" source="13" target="50" edge="1">
                    <mxGeometry relative="1" as="geometry"/>
                </mxCell>
                <mxCell id="60" style="edgeStyle=none;html=1;exitX=0.5;exitY=0.5;exitDx=0;exitDy=0;exitPerimeter=0;entryX=1;entryY=0.5;entryDx=0;entryDy=0;" parent="1" source="13" target="55" edge="1">
                    <mxGeometry relative="1" as="geometry"/>
                </mxCell>
                <mxCell id="13" value="UI" style="shape=umlActor;verticalLabelPosition=bottom;verticalAlign=top;html=1;" parent="1" vertex="1">
                    <mxGeometry x="590" y="350" width="30" height="60" as="geometry"/>
                </mxCell>
                <mxCell id="59" style="edgeStyle=none;html=1;exitX=0.5;exitY=0.5;exitDx=0;exitDy=0;exitPerimeter=0;entryX=0;entryY=0.75;entryDx=0;entryDy=0;" parent="1" source="20" target="58" edge="1">
                    <mxGeometry relative="1" as="geometry"/>
                </mxCell>
                <mxCell id="20" value="Serial" style="shape=umlActor;verticalLabelPosition=bottom;verticalAlign=top;html=1;" parent="1" vertex="1">
                    <mxGeometry x="120" y="370" width="30" height="60" as="geometry"/>
                </mxCell>
                <mxCell id="66" style="edgeStyle=none;html=1;exitX=0.5;exitY=0.5;exitDx=0;exitDy=0;exitPerimeter=0;" parent="1" source="21" target="65" edge="1">
                    <mxGeometry relative="1" as="geometry"/>
                </mxCell>
                <mxCell id="21" value="SD" style="shape=umlActor;verticalLabelPosition=bottom;verticalAlign=top;html=1;" parent="1" vertex="1">
                    <mxGeometry x="140" y="480" width="30" height="60" as="geometry"/>
                </mxCell>
                <mxCell id="31" value="" style="shape=ellipse;container=1;horizontal=1;horizontalStack=0;resizeParent=1;resizeParentMax=0;resizeLast=0;html=1;dashed=0;collapsible=0;" parent="1" vertex="1">
                    <mxGeometry x="410" y="160" width="140" height="90" as="geometry"/>
                </mxCell>
                <mxCell id="32" value="UseCase1" style="html=1;strokeColor=none;fillColor=none;align=center;verticalAlign=middle;rotatable=0;" parent="31" vertex="1">
                    <mxGeometry width="140" height="22.5" as="geometry"/>
                </mxCell>
                <mxCell id="33" value="" style="line;strokeWidth=1;fillColor=none;rotatable=0;labelPosition=right;points=[];portConstraint=eastwest;dashed=0;resizeWidth=1;" parent="31" vertex="1">
                    <mxGeometry x="7" y="22.5" width="126" height="7.5" as="geometry"/>
                </mxCell>
                <mxCell id="34" value="Interface for Sensor &lt;br&gt;Calibration" style="text;html=1;align=center;verticalAlign=middle;rotatable=0;fillColor=none;strokeColor=none;" parent="31" vertex="1">
                    <mxGeometry y="30" width="140" height="22.5" as="geometry"/>
                </mxCell>
                <mxCell id="42" value="" style="shape=ellipse;container=1;horizontal=1;horizontalStack=0;resizeParent=1;resizeParentMax=0;resizeLast=0;html=1;dashed=0;collapsible=0;" parent="1" vertex="1">
                    <mxGeometry x="220" y="10" width="140" height="90" as="geometry"/>
                </mxCell>
                <mxCell id="43" value="UseCase1" style="html=1;strokeColor=none;fillColor=none;align=center;verticalAlign=middle;rotatable=0;" parent="42" vertex="1">
                    <mxGeometry width="140" height="22.5" as="geometry"/>
                </mxCell>
                <mxCell id="44" value="" style="line;strokeWidth=1;fillColor=none;rotatable=0;labelPosition=right;points=[];portConstraint=eastwest;dashed=0;resizeWidth=1;" parent="42" vertex="1">
                    <mxGeometry x="7" y="22.5" width="126" height="7.5" as="geometry"/>
                </mxCell>
                <mxCell id="45" value="Commands Sensor Data &lt;br&gt;Retreival" style="text;html=1;align=center;verticalAlign=middle;rotatable=0;fillColor=none;strokeColor=none;" parent="42" vertex="1">
                    <mxGeometry y="30" width="140" height="22.5" as="geometry"/>
                </mxCell>
                <mxCell id="47" value="" style="shape=ellipse;container=1;horizontal=1;horizontalStack=0;resizeParent=1;resizeParentMax=0;resizeLast=0;html=1;dashed=0;collapsible=0;" parent="1" vertex="1">
                    <mxGeometry x="420" y="290" width="130" height="80" as="geometry"/>
                </mxCell>
                <mxCell id="48" value="UseCase1" style="html=1;strokeColor=none;fillColor=none;align=center;verticalAlign=middle;rotatable=0;" parent="47" vertex="1">
                    <mxGeometry width="130" height="20" as="geometry"/>
                </mxCell>
                <mxCell id="49" value="" style="line;strokeWidth=1;fillColor=none;rotatable=0;labelPosition=right;points=[];portConstraint=eastwest;dashed=0;resizeWidth=1;" parent="47" vertex="1">
                    <mxGeometry x="6.5" y="20" width="117" height="6.666666666666666" as="geometry"/>
                </mxCell>
                <mxCell id="50" value="Manages Web Page" style="text;html=1;align=center;verticalAlign=middle;rotatable=0;fillColor=none;strokeColor=none;" parent="47" vertex="1">
                    <mxGeometry y="26.666666666666664" width="130" height="20" as="geometry"/>
                </mxCell>
                <mxCell id="55" value="" style="shape=ellipse;container=1;horizontal=1;horizontalStack=0;resizeParent=1;resizeParentMax=0;resizeLast=0;html=1;dashed=0;collapsible=0;" parent="1" vertex="1">
                    <mxGeometry x="210" y="360" width="130" height="80" as="geometry"/>
                </mxCell>
                <mxCell id="56" value="UseCase1" style="html=1;strokeColor=none;fillColor=none;align=center;verticalAlign=middle;rotatable=0;" parent="55" vertex="1">
                    <mxGeometry width="130" height="20" as="geometry"/>
                </mxCell>
                <mxCell id="57" value="" style="line;strokeWidth=1;fillColor=none;rotatable=0;labelPosition=right;points=[];portConstraint=eastwest;dashed=0;resizeWidth=1;" parent="55" vertex="1">
                    <mxGeometry x="6.5" y="20" width="117" height="6.666666666666666" as="geometry"/>
                </mxCell>
                <mxCell id="58" value="DebugLogger" style="text;html=1;align=center;verticalAlign=middle;rotatable=0;fillColor=none;strokeColor=none;" parent="55" vertex="1">
                    <mxGeometry y="29.996666666666663" width="130" height="20" as="geometry"/>
                </mxCell>
                <mxCell id="62" value="" style="shape=ellipse;container=1;horizontal=1;horizontalStack=0;resizeParent=1;resizeParentMax=0;resizeLast=0;html=1;dashed=0;collapsible=0;" parent="1" vertex="1">
                    <mxGeometry x="250" y="460" width="130" height="80" as="geometry"/>
                </mxCell>
                <mxCell id="63" value="UseCase1" style="html=1;strokeColor=none;fillColor=none;align=center;verticalAlign=middle;rotatable=0;" parent="62" vertex="1">
                    <mxGeometry width="130" height="20" as="geometry"/>
                </mxCell>
                <mxCell id="64" value="" style="line;strokeWidth=1;fillColor=none;rotatable=0;labelPosition=right;points=[];portConstraint=eastwest;dashed=0;resizeWidth=1;" parent="62" vertex="1">
                    <mxGeometry x="6.5" y="20" width="117" height="6.666666666666666" as="geometry"/>
                </mxCell>
                <mxCell id="65" value="Matlab Loadable data" style="text;html=1;align=center;verticalAlign=middle;rotatable=0;fillColor=none;strokeColor=none;" parent="62" vertex="1">
                    <mxGeometry y="29.996666666666663" width="130" height="20" as="geometry"/>
                </mxCell>
                <mxCell id="67" value="&lt;br&gt;&lt;br&gt;Has sensor &lt;br&gt;Calibrator" style="shape=ellipse;container=1;horizontal=1;horizontalStack=0;resizeParent=1;resizeParentMax=0;resizeLast=0;html=1;dashed=0;collapsible=0;" parent="1" vertex="1">
                    <mxGeometry x="220" y="230" width="130" height="100" as="geometry"/>
                </mxCell>
                <mxCell id="68" value="UseCase1" style="html=1;strokeColor=none;fillColor=none;align=center;verticalAlign=middle;rotatable=0;" parent="67" vertex="1">
                    <mxGeometry width="130" height="25" as="geometry"/>
                </mxCell>
                <mxCell id="69" value="" style="line;strokeWidth=1;fillColor=none;rotatable=0;labelPosition=right;points=[];portConstraint=eastwest;dashed=0;resizeWidth=1;" parent="67" vertex="1">
                    <mxGeometry x="6.5" y="25" width="117" height="8.333333333333334" as="geometry"/>
                </mxCell>
                <mxCell id="70" value="Hardware Interface" style="text;html=1;align=center;verticalAlign=middle;rotatable=0;fillColor=none;strokeColor=none;" parent="67" vertex="1">
                    <mxGeometry y="33.333333333333336" width="130" height="25" as="geometry"/>
                </mxCell>
                <mxCell id="76" value="" style="shape=ellipse;container=1;horizontal=1;horizontalStack=0;resizeParent=1;resizeParentMax=0;resizeLast=0;html=1;dashed=0;collapsible=0;" parent="1" vertex="1">
                    <mxGeometry x="220" y="120" width="140" height="90" as="geometry"/>
                </mxCell>
                <mxCell id="77" value="UseCase1" style="html=1;strokeColor=none;fillColor=none;align=center;verticalAlign=middle;rotatable=0;" parent="76" vertex="1">
                    <mxGeometry width="140" height="22.5" as="geometry"/>
                </mxCell>
                <mxCell id="78" value="" style="line;strokeWidth=1;fillColor=none;rotatable=0;labelPosition=right;points=[];portConstraint=eastwest;dashed=0;resizeWidth=1;" parent="76" vertex="1">
                    <mxGeometry x="7" y="22.5" width="126" height="7.5" as="geometry"/>
                </mxCell>
                <mxCell id="79" value="Manages State" style="text;html=1;align=center;verticalAlign=middle;rotatable=0;fillColor=none;strokeColor=none;" parent="76" vertex="1">
                    <mxGeometry y="30" width="140" height="22.5" as="geometry"/>
                </mxCell>
            </root>
        </mxGraphModel>
    </diagram>
</mxfile>